<svg width="33" height="33" viewBox="0 0 33 33" fill="none" xmlns="http://www.w3.org/2000/svg">
<g clip-path="url(#clip0_123_3)">
<path d="M7.00325 11.3976C7.00325 9.90868 5.21479 9.16301 4.16881 10.2159L1.39077 13.0121C-0.463589 14.8786 -0.463589 17.9049 1.39077 19.7714L13.1424 31.6001C14.9967 33.4666 18.0033 33.4666 19.8576 31.6001L31.6092 19.7714C33.4636 17.9049 33.4636 14.8786 31.6092 13.0121L19.8576 1.1834C19.3511 0.673524 18.7585 0.30293 18.127 0.071619C17.2653 -0.244005 16.5 0.531762 16.5 1.45478L16.5 12.8071C16.5 15.4468 14.3741 17.5866 11.7516 17.5866C9.12917 17.5866 7.00325 15.4468 7.00325 12.8071V11.3976Z" fill="#FF7280"/>
</g>
<defs>
<clipPath id="clip0_123_3">
<rect width="33" height="33" fill="white"/>
</clipPath>
</defs>
</svg>
